<?xml version="1.0" encoding="utf-8"?>
<!-- Generator: Adobe Illustrator 21.1.0, SVG Export Plug-In . SVG Version: 6.00 Build 0)  -->
<svg version="1.1" id="Layer_2" xmlns="http://www.w3.org/2000/svg" xmlns:xlink="http://www.w3.org/1999/xlink" x="0px" y="0px"
	 width="220px" height="220px" viewBox="0 0 220 220" enable-background="new 0 0 220 220" xml:space="preserve">
<g>
	<defs>
		<circle id="SVGID_1_" cx="110" cy="110" r="110"/>
	</defs>
	<clipPath id="SVGID_2_">
		<use xlink:href="#SVGID_1_"  overflow="visible"/>
	</clipPath>
	<g clip-path="url(#SVGID_2_)">
		<path fill="#FFFFFF" d="M110,218.5C50.1,218.5,1.5,169.8,1.5,110S50.1,1.5,110,1.5c59.8,0,108.5,48.7,108.5,108.5
			S169.8,218.5,110,218.5z"/>
		<path fill="#F1F1F1" d="M110,3c28.6,0,55.4,11.1,75.6,31.3s31.3,47.1,31.3,75.6s-11.1,55.4-31.3,75.6S138.5,217,110,217
			s-55.4-11.1-75.6-31.3S3,138.6,3,110s11.1-55.4,31.3-75.6S81.4,3,110,3 M110,0C49.2,0,0,49.3,0,110s49.2,110,110,110
			s110-49.2,110-110S170.7,0,110,0L110,0z"/>
	</g>
</g>
<g>
	<defs>
		<circle id="SVGID_3_" cx="110" cy="110" r="110"/>
	</defs>
	<clipPath id="SVGID_4_">
		<use xlink:href="#SVGID_3_"  overflow="visible"/>
	</clipPath>
	<g id="Layer_3" clip-path="url(#SVGID_4_)">
	</g>
</g>
<g>
	<defs>
		<circle id="SVGID_5_" cx="110" cy="110" r="110"/>
	</defs>
	<clipPath id="SVGID_6_">
		<use xlink:href="#SVGID_5_"  overflow="visible"/>
	</clipPath>
</g>
<g>
	<defs>
		<circle id="SVGID_7_" cx="110" cy="110" r="110"/>
	</defs>
	<clipPath id="SVGID_8_">
		<use xlink:href="#SVGID_7_"  overflow="visible"/>
	</clipPath>
</g>
<g>
	<defs>
		<circle id="SVGID_9_" cx="110" cy="110" r="110"/>
	</defs>
	<clipPath id="SVGID_10_">
		<use xlink:href="#SVGID_9_"  overflow="visible"/>
	</clipPath>
</g>
<g>
	<defs>
		<circle id="SVGID_11_" cx="110" cy="110" r="110"/>
	</defs>
	<clipPath id="SVGID_12_">
		<use xlink:href="#SVGID_11_"  overflow="visible"/>
	</clipPath>
</g>
<g>
	<defs>
		<circle id="SVGID_13_" cx="110" cy="110" r="110"/>
	</defs>
	<clipPath id="SVGID_14_">
		<use xlink:href="#SVGID_13_"  overflow="visible"/>
	</clipPath>
	<g clip-path="url(#SVGID_14_)">
		<path fill="#F1F1F1" d="M110,1c29.1,0,56.5,11.3,77.1,31.9S219,80.9,219,110s-11.3,56.5-31.9,77.1S139.1,219,110,219
			s-56.5-11.4-77-32S1,139.1,1,110s11.4-56.5,32-77.1S80.9,1,110,1 M110,0C49.3,0,0,49.3,0,110s49.2,110,110,110s110-49.2,110-110
			S170.7,0,110,0L110,0z"/>
	</g>
</g>
<g>
	<path stroke="#FFFFFF" stroke-width="0.3071" d="M136.9,78.5c-0.2-2.9,1.1-4.3,1.9-6.5c-2.5,0.5-4,4.3-3.1,7.4
		c0.8,2.2,3.7,3.2,4.2,5.1c0.2,2.3-0.2,4.2-0.8,5.7c-0.8,0.6-2,0.8-3.1,1.1c-0.5-1.2-0.5-3.2-0.2-4.6c-3.2,1.5,0,5.1-0.6,7.4
		c-0.5,2-4.3,2.6-6.5,3.1c-2.5-1.2-2.6-4.6-6.5-4.6c0.8,1.1,3.2,2.3,4,4c0,1.2,0.2,2.5-0.5,3.2c-0.3,0.3-1.4,0.3-1.5,0
		c-0.6,0.6-0.9,1.5-1.2,2.5c-0.9-0.5-2.2,0.3-2.8,0.6c-0.6,0-0.5-0.8-0.8-1.1c-1.2,0.6-2,1.7-2.5,3.1c-0.6-0.9-0.8-2.3-1.9-2.8
		c-1.4,0.2-1.7,1.5-2.5,2.5c-0.9-0.5-1.1-1.5-2-2c-0.9,0-1.1,0.6-1.5,1.1c-1.2-1.2-3.9-0.9-4.6-2.6c-0.6-0.2-0.6,0.3-1.2,0.2
		c0-0.5-0.2-0.9-0.6-1.1c-0.8-0.2-1.1,0.3-1.9,0.5c0.3-3.4-2.8-2.8-4-1.4c0.9-2.9,2.8-6.3,6.3-6c1.4,0.2,2.2,1.1,3.7,1.4
		c0-1.5-1.2-1.9-2-2.6c-2.8-0.2-4.5,0.6-6.5,1.5c-1.4,0.8-2.8,1.9-4.2,1.5c-1.4-0.2-2.9-2.2-3.2-3.7c-0.8-3.1,1.1-7.7-2-9.3
		c-0.5,1.2,0.9,3.5,0.6,4.8c-1.2,0-1.2-1.5-1.4-2.5c-0.2-0.9-0.5-2.8-0.5-3.4c0.2-1.7,2.2-2.6,2.2-4.8c0.2-2.2-0.9-2.9-1.2-5.2
		c-1.1,1.5,0.5,4-0.2,5.9c-0.9-0.5-0.9-1.9-1.2-2.6c-0.8-2.6-1.4-5.9-1.2-9.4c0.9-16.8,15-27.6,33.3-26.2c6.2,0.5,12.2,3.2,15.7,7.1
		c4.2,4.3,6.6,11.7,6,19.6c-0.3,3.9-1.5,7.4-2.8,10.5C137.9,76.6,137.6,77.7,136.9,78.5z M125.6,44.5c-2.3-1.7-6.6-1.4-9.7-2.2
		c-0.3,0.2-0.8,0.3-1.2,0.5c-1.4-0.6-3.5-1.2-5.4-0.8c-0.6,1.7,1.5,2.2,2,3.7c-0.3,0.3-0.3,1.9,0.2,2.2c1.9,0.2,2.2-1.1,3.7-1.4
		c0.6,1.5,2.8,1.5,3.9,2.6c0.5,0.6,0.3,2,0.6,2.8c0,0.9,1.1,0.8,1.2,1.5c-1.4,0-2.6,0.3-3.1,1.2c0.3,2.5,3.2,1.9,3.9,4
		c0.2,0.6,0,1.5,0,2c-0.2,1.1-0.5,2.2-0.6,3.2c-0.2,0.8-0.9,2.3,0.2,2.8c1.2,0,0.6-1.9,1.2-2.5c0,1.2-0.2,2.6,0.5,3.4
		c2,0,3.4,1.5,5.2,1.2c1.9-0.5,2-3.7,2.6-6c0.3-1.4,0.9-3.2,1.1-4.2c0-0.8-0.5-2.2-0.6-3.7c-0.2-1.1,0.2-2.3,0-3.1
		c-0.6-3.1-4.3-4.6-4-8C126,43.9,126.2,44.5,125.6,44.5z M104.6,47.3c-2,0.3-3.9,2.6-4.6,4c-1.1,2-0.5,4.3-1.2,6.5
		c-0.9,2.6-5.2,4.2-3.9,7.9c1.5-0.3,2-1.5,3.7-1.9c3.1,0.6,3.9,3.2,5.9,5.1c1.1,1.1,3.5,2.2,4.8,2.6c1.9,0.6,3.7-0.2,6.6,0.2
		c1.5,0.2,3.7,2,5.7,0.8c-0.2-1.7-1.9-1.9-2.5-3.2c0-0.8,0.5-1.2,0.5-2c-2.5-1.5-3.1,1.5-4.8,1.5c-1.2,0-3.5-2.2-4.6-3.7
		c-0.9-1.2-1.9-3.4-2-5.1c0.6,0.5,0.6,1.4,1.5,1.4c1.2-2.9-1.2-5.1-1.9-7.4c-0.3-0.9-0.3-2.5-0.5-3.7c-0.2-2.6,1.1-3.2,0.8-5.4
		C106,44.1,105.7,46.7,104.6,47.3z M104,72.1c-1.2-1.2-3.4-4.6-5.7-5.1c-0.8-0.2-3.1-0.2-3.1,0.8c1.2-0.5,3.4-0.3,3.4,1.2
		c-4.2,0.5-5.6,3.9-6,8c1.5,2.6,4.5,3.9,6,6.5c-0.9,0.9-2.9,0.6-4,1.2c2.8,0.8,5.1-0.5,7.1-1.2c1.9-3.1,4.5-5.4,8.3-6.6
		c-0.5,1.9-3.2,3.5-4,5.4c-0.3,0.8-0.9,3.5,0.2,3.4c-0.8-6,6.5-5.9,6.3-11.9C108.8,74.2,106.6,72.9,104,72.1z M129.1,71.1
		c-3.9,2.3-7.3,4.5-13.6,3.4c0.3,2,2.5,3.4,2.8,5.9c0.5,2.3-0.3,5.4,2.5,5.2c-1.7-0.5-1.9-3.4-1.4-5.2c1.1,0.6,2.3,1.5,3.4,2.8
		c0.9,1.1,1.5,2.9,2.6,3.7c0.6,0.5,2.8,1.4,3.9,0.2c-1.5-0.2-2.8-0.6-3.2-1.9c3.7-0.9,5.9-3.2,7.9-5.9c0-2.3,0.2-3.7,0-5.9
		c-0.9-0.9-2.3-1.4-3.4-2c0.8-1.1,2.8-1.2,3.7-1.5C132.1,69.1,130.7,70.3,129.1,71.1z M113.7,82.5c-1.4-0.8,0-4.2-1.1-5.2
		c-0.3,4.6-5.4,6.6-3.4,12c0.3-0.8,0.2-2,1.4-1.9c0.5,0.2,0.2,1.1,0.8,1.2c0-0.9,0.3-1.4,1.1-1.5c0.6,1.1,0.5,2.9,0.6,4.5
		c0.6-0.8,0-4.8,1.9-4.6c0.8,0.5,0.9,1.4,0.8,2.6c-0.2,0.5,0.3,0.9,0.2,0.2c0.2-0.8-0.2-2,1.1-2.2c1.1,0.2,1.4,1.2,1.2,2.6
		c0.9-0.3,0.2-2.2,0.5-3.1c-1.1-1.1-0.9-2.5-1.2-4.2c-0.2-1.5-1.4-2.9-1.9-4.2c-0.3-0.9-0.2-1.7-0.6-2.5
		C114.9,78.6,114.8,81.1,113.7,82.5z"/>
	<path stroke="#FBFFFB" stroke-width="0.3071" d="M109.5,42.4c-0.2,0-0.3,0.2-0.2,0.5c0.6,1.1,1.5,1.9,2.5,2.6
		c-0.6,0.2-0.3,1.2-0.5,2.2c1.7,0.2,2.5-0.9,3.4-1.5c-0.3-0.5-1.4-0.2-1.9-0.6c2-0.9,2.6,1.1,3.4,2.2c2.5,0.2,3.5,1.9,3.7,4.5
		c0.9,1.5,3.5,2.6,3.4,4.6c-0.6-0.9-1.1-2-2-2.6c-1.7,0-2.9,0.2-3.1,1.1c-0.3,1.4,3.5,2.3,3.7,3.7c-0.3,1.4,0.8,2.2,1.1,3.4
		c0.2,1.7-0.8,3.7,0,5.7c2,0,3.2,0.9,5.2,1.1c1.2-0.6,1.1-2,1.4-3.7c0.5-2.3,1.5-5.1,1.5-6.3c0-1.1-0.5-2.5-0.6-3.7
		c0-1.1,0.2-2.2,0-3.1c-0.6-2.9-4.3-4.6-3.9-7.7c-0.6-0.2-0.5,0.6-1.2,0.5c-1.2-0.6-3.1-1.4-5.1-1.5c-2.2-0.3-4.2-0.6-5.2-0.2
		c0.6,0.3,1.5,0.5,1.9,1.2C114.9,43.4,112.6,41.6,109.5,42.4z M121,66.4c0.9-0.2,0.6-1.7,1.1-2.6c0.5-1.2,1.1-2.5-0.2-3.2
		C121.6,62.7,121.1,64.4,121,66.4z"/>
	<path fill="#FFFFFF" d="M123.9,59.8c0,0.5,0,0.8,0,1.2c0.8-0.2,0.6,0.8,1.4,0.6c0.3-0.3,0.2-1.4,0.2-2
		C125,59.6,124.7,60,123.9,59.8z"/>
	<path stroke="#FDF9FC" stroke-width="0.3071" d="M106.5,47.9c0.2-0.9,0.6-1.4,0.6-2.6c-2,0.8-1.5,2.8-1.5,4.6
		c-0.2-0.8-0.3-1.5-0.6-2.2c-1.9,0-2.8,1.7-3.7,2.8c-1.4,1.9-2,4.3-2,7.3c-1.4,2.5-4.2,3.4-4,7.4c1.2-0.5,1.7-1.5,3.1-1.5
		c3.7-0.3,5.1,4,7.1,5.4c2.3,1.7,5.7,2.6,9.9,2.5c0.2-0.6-1.1-0.6-0.5-1.1c1.5,1.1,4,2.2,6.5,1.9c-0.3-1.9-2.6-2.3-3.7-2.8
		c0.5,0,0.8,0,1.2,0c0-0.9,0.3-1.2,0.5-2c-2-0.3-2.9,0.6-3.7,1.5c0.2,0.3,1.7,0.2,1.1,0.6c-5.2-1.1-8-4.5-8.8-9.9
		c-0.9-0.5-2.5-1.4-2.6-2.6c0-0.3-0.3-1.4,0.5-1.5c-0.3,3.4,2.6,3.7,3.9,5.7c0.2-3.4-0.9-5.6-2.6-7.3c0.3,0,0.8,0,0.6-0.5
		c-0.6-2.9-0.3-5.7,0.6-8c-0.3,0-0.3-0.3-0.6-0.5C107.5,46.4,106.9,48.1,106.5,47.9z"/>
	<path fill="#FFFFFF" stroke="#000000" stroke-width="0.3071" d="M104.8,51.9c0.6,0.2,0.8-0.3,1.1-0.6c-0.3-0.2-0.5-0.5-1.1-0.5
		C104.8,51.3,104.8,51.6,104.8,51.9z"/>
	<path fill="#FDF9FC" stroke="#000000" stroke-width="0.3071" d="M124.2,60.7c0.5,0.2,0.6,0.5,1.1,0.6c-0.2-0.3,0.3-1.2-0.2-1.2
		C124.8,60.4,124,60.1,124.2,60.7z"/>
	<path stroke="#FFFFFF" stroke-width="0.3071" d="M31.2,86.2c5.7-0.6,10.5,0.2,15.7,0.6c0.2,1.1-0.8,1.1-0.8,2
		c3.2,1.9,7.6,3.2,11.7,4.6c2.5,0.8,4.8,1.7,8,0.8c0,0.9,0.8,1.7,0.8,2.6c0,0.6-0.5,1.2-0.6,1.9c-0.3,2,1.2,3.9,0.6,5.9
		c1.4,0,2-0.3,3.1,0.2c-0.3,1.2-1.5,1.5-1.4,2.6c0.2,1.5,2.2,1.7,3.4,2.6c1.2-0.6,2.5-1.2,3.4-2.2c1.9-0.2,3.9-0.8,5.9-0.2
		c0,1.2-1.2,1.7-1.9,2.8c-0.3,0.6-0.2,1.7-0.6,2.2c-0.5,0.8-1.5,1.2-2.5,1.5c0.9,3.1-1.7,5.9-0.5,8.8c-3.4-0.9-4.8-4-4.8-8.3
		c-0.9-0.2-2.5-0.2-4-0.2c-1.1,0.3-0.6,2.2-1.1,3.2c-0.8-0.5-1.9-0.6-2.5-1.2c-1.2,3.1-5.4,4.3-4.6,8.6c-0.6,0-0.9,0.6-1.9,0.5
		c-0.8-0.6-0.9-1.5-1.5-2.2c-1.9-1.5-5.7-2.8-8.5-3.9c-3.1-1.1-6.2-2.3-9.3-2.8c-0.5,0.2,0,1.2-0.2,1.9c-4.9-2.3-9.3-5.4-13.9-8
		c5.2-0.5,11.4,0.8,15.9,1.1c-0.2,0.9-0.6,1.7-1.1,2.5c4.3,1.1,10.3,4.9,15.9,5.4c3.4,0.3,6.6-1.5,6-5.4c-0.5-2.9-4.9-4.2-7.9-5.2
		c-4.8-1.7-10.2-3.4-14.7-5.2c-0.6,0.3-0.3,1.5-0.5,2.5c-6.6-2.8-12.2-6.8-18.5-9.9c7.6-1.1,14.5,1.2,21.9,1.4
		c-0.5,1.2-1.5,1.7-2,2.8c2.2,1.2,5.7,2.2,9.4,3.4c3.2,1.1,6.8,2.6,9.7,3.1c2.6,0.3,5.2-0.3,5.9-2.8c0.6-2.3-1.1-4.6-2.2-6.3
		c-5.4-1.9-11-3.5-16.2-5.4c-0.6,0.2-0.6,1.1-0.6,2C39.6,92.2,35.5,89.3,31.2,86.2z M63.7,107.6c-2.3,0.8-5.4-0.9-6.5,0.8
		c1.9,1.1,3.7,2.3,5.2,3.9c0,2,0.6,3.4,2.5,3.7c0.3-0.8-0.2-1.5,0.2-3.1c1.7,0.8,4.3,0.3,6.3,0.8c0.9,1.5,1.5,3.5,3.7,3.9
		c0-1.4-0.3-2.6-0.5-3.9c0.9-1.1,1.9-2.2,2.6-3.4c-2.2-1.5-3.7,1.2-5.7,1.1c-0.8-0.2-1.9-1.1-2.6-1.5c-0.9-0.6-1.9-0.9-2.6-1.5
		c0.5-0.9,1.2-1.2,1.5-2.2C66,104.7,65.3,107.2,63.7,107.6z"/>
	<path stroke="#FFFFFF" stroke-width="0.3071" d="M116.6,122.8c2,0.3,3.9-0.6,5.9-1.2c1.9-0.6,3.4-1.7,5.1-2.2
		c0.2,0,0.5-0.2,0.5-0.2c6-1.1,12-2.9,18.4-4.2c-0.8-0.6-0.6-0.6,1.1-1.1c6.8-1.7,13.1-6.6,18.5-11.7c5.4-4.9,10.3-11.9,20.2-11.1
		c6.3,0.5,9.7,3.7,12.5,8c1.1,1.7,2.2,3.7,2.5,5.7c0.8,6-1.5,11.9-4.8,15.1c-1.9,1.9-5.9,4.2-9.1,4.5c-2.2,0.2-4.6-0.5-6.8-0.8
		c-4.3-0.8-9.3-2.3-11.9,1.4c0.5,0.8,0.9-1.2,1.5-0.5c0.3,3.9-4.8,3.4-5.2,0.8c-0.5-2.9,2.9-4.8,5.7-5.2c4.2-0.6,9.6,1.2,14.3,0.8
		c4.6-0.5,6.2-2.9,9.1-4.2c3.9-4.3,4.8-12.3,0.5-17c-2.3-2.5-6.5-4.3-10.3-4.2c-5.2,0.2-9.1,3.4-12.3,6.3c-3.4,3.1-6,6.3-9.4,8.8
		c0-0.5,0.8-1.7,1.4-2.5c0.6-0.8,1.4-1.2,2-2c3.7-4.2,8-8.8,14-10.6c-2-0.5-3.5,1.1-5.1,2c-4.6,2.9-8,6.6-11.7,11
		c-0.8,0.9-1.4,2.2-2.2,2.8c-2,1.9-5.9,3.4-9.1,4.6c-8.5,3.2-17,4.9-26.4,7.7c-1.9,0.5-3.7,1.4-5.2,1.4c-2.2,0-3.5-1.5-5.9-1.5
		c1.9-1.4,4.5-1.2,6.6-2.5c0.6-0.3,0.9-0.9,1.5-1.2c1.7-0.6,3.9-0.8,5.9-1.2c5.6-1.2,11.3-3.1,17.1-4c-3.1,1.1-6.8,1.9-10.3,2.8
		c-2.5,0.6-4.9,0.9-7.3,1.5c-1.9,0.6-3.4,1.5-5.2,2.2C120.6,121.8,118.6,122.3,116.6,122.8z"/>
	<path stroke="#FFFFFF" stroke-width="0.3071" d="M98,104.4c-2.6-1.4-1.9-6.6,1.5-6.5C101.2,99.8,100,103.9,98,104.4z"/>
	<path stroke="#FFFFFF" stroke-width="0.3071" d="M124.8,100.2c0.9,2.3,2.2,7.7-1.4,8C122.8,105.5,123,101.5,124.8,100.2z"/>
	<path stroke="#FFFFFF" stroke-width="0.3071" d="M125.6,100.2c1.7,0.5,2.6,4.8,0.8,5.9C126.2,103.9,125.6,102.4,125.6,100.2z"/>
	<path stroke="#FFFFFF" stroke-width="0.3071" d="M102.8,100.4c0.6,1.1-0.6,2.3-0.8,3.7c-0.2,1.4,0.3,2.8-0.5,4
		C97.7,107.9,99,100.4,102.8,100.4z"/>
	<path stroke="#FFFFFF" stroke-width="0.3071" d="M105.5,102.2c-0.5,2.3-0.9,4.8-0.8,7.9c-3.9,1.2-2.9-7.9-0.8-8.8
		C105.1,101,105.1,101.9,105.5,102.2z"/>
	<path stroke="#FFFFFF" stroke-width="0.3071" d="M116,112.4c-1.1,0.3-2.6,0.3-3.4-0.2c1.4-3.1-0.6-8.5,2.2-9.9
		C117.7,103.8,116.5,109.3,116,112.4z"/>
	<path stroke="#FFFFFF" stroke-width="0.3071" d="M119.6,102.4c0.9,2.8,0.8,7.7-0.2,10.3c-1.1-0.2-1.9-0.6-2.6-1.1
		C117.4,108.4,116.3,103.2,119.6,102.4z"/>
	<path stroke="#FFFFFF" stroke-width="0.3071" d="M122.7,102.4c-0.3,3.5,1.1,8.6-2.5,9.1c0.2-2.6,0.3-5.7,0-8.3
		C121,102.9,121.7,102.5,122.7,102.4z"/>
	<path stroke="#FFFFFF" stroke-width="0.3071" d="M108.8,103.6c0.5,2.9,0.2,6.6-0.8,8.6c-4.2,0-2.9-6.9-2-9.7
		C107.4,102.4,108.2,103,108.8,103.6z"/>
	<path stroke="#FFFFFF" stroke-width="0.3071" d="M111.2,113.3c-1.2,0-1.9-0.9-2.6-1.4c1.2-2.3-0.3-7.6,1.5-9.1
		C114,103.8,113.6,111,111.2,113.3z"/>
	<path stroke="#FFFFFF" stroke-width="0.3071" d="M61.4,111c0.5,0.3,1.1,0.5,1.4,1.1c0,1.9,0.5,3.1,1.9,3.4
		c-0.3-1.1-0.2-1.9,0.2-3.1c1.9,1.1,3.9,0.2,5.7,0.6c2.2,0.6,1.9,3.5,4,3.9c0-1.4-0.3-2.5-0.5-3.9c1.1,0.2,1.4-2.2,2.6-2.6
		c-2.3-0.9-3.4,1.4-5.2,1.2c-0.9-0.2-1.9-1.2-2.8-1.9c-1.1-0.6-2.2-0.9-3.1-1.5c0.6-0.6,0.9-1.7,1.9-2.2c-1.7-0.5-2.3,1.5-3.7,2
		c-0.6-0.5-1.7,0.2-2.6,0.2c-0.5,0.3-0.2,1.4-0.8,1.5c-0.2-0.8,0.2-1.2,0.5-1.5c-1.2,0-2-0.3-3.2-0.2
		C58.5,109.3,60.8,109.5,61.4,111z"/>
	<path fill="#FFFFFF" d="M68.3,111.6c-1.4,0.3-3.5-0.2-4.2-1.2c0-0.2,0-0.5,0-0.6C65.4,109.6,67.6,110.6,68.3,111.6z M67.4,111.3
		c-0.8-0.3-2.6-1.5-3.1-0.8C65.1,110.9,66.8,111.5,67.4,111.3z"/>
	<path fill="#FFFFFF" stroke="#000000" stroke-width="0.3071" d="M47.7,142.4c-2.8,1.1-5.6,1.7-8.3,2.8c-1.5,0.6-2.9,1.4-5.1,1.9
		c0.2-1.1,0.8-1.5,1.1-2.5C40,144.2,43.5,143,47.7,142.4z"/>
	<path stroke="#FFFFFF" stroke-width="0.3071" d="M163.2,154.4c0.6,0.9,0.2,3.1,1.1,3.9c-1.5,2.3,0.5,6.8-1.2,8.8
		c-1.7,0-2.9,0.8-4.5,0c0-1.5-0.3-3.4,0.8-3.9c0.2-0.6-0.8-0.3-0.8-0.8c-0.2-2.9-0.3-6.5,0.5-8.3
		C160.5,153.8,162.2,153.8,163.2,154.4z M160.2,155c-0.2,0.3-0.5,0.5-0.5,0.8c0.3,2.5,0.2,6.3-0.2,9.3c0.8,0.5,0.8,1.2,1.9,1.1
		c2.9-0.5,0.2-8.3,1.4-9.9C162.3,155.5,161.4,155.2,160.2,155z"/>
	<path stroke="#FFFFFF" stroke-width="0.3071" d="M58.8,156.7c-0.6-0.2-0.8-0.8-1.2-1.1c-2,0.3-2.3,2-1.5,3.4
		c0.6,1.1,2.2,1.2,2.8,1.9c-0.3,2,1.1,3.2,0.6,4.8c-0.6,2.8-5.7,2.2-4.6-1.5c1.1,0.3,0.9,1.9,2.5,1.9c0.3-0.2,0.6-0.5,1.1-0.6
		c0-1.1,0-2.3,0-3.4c-1.4-0.5-2.9-0.9-3.9-1.9c-0.3-2.2-0.8-4,0.6-5.2C56.5,153.5,59.9,153.9,58.8,156.7z"/>
	<path stroke="#FFFFFF" stroke-width="0.3071" d="M68.7,154.5c-0.5,0.8-1.2,0.8-2.8,0.8c-0.3,2-0.6,3.4,0.5,4.6
		c0.8,0.3,2.5-0.6,2.6,0.8c-0.6,0.9-2.5,0.5-3.2,1.2c0.2,1.2,0.3,2.8,0,3.4c0.8,1.4,3.5-0.5,4,1.2c-0.3,1.2-2.9,0.6-4.8,0.8
		c-0.8-1.4-0.9-4.2-0.8-6.3c0-0.6,0.3-1.1,0.5-1.5c0-1.5-0.6-3.4-0.2-4.5C64.8,153.5,67,154.1,68.7,154.5z"/>
	<path stroke="#FFFFFF" stroke-width="0.3071" d="M77.8,154.4c0.5,3.2,1.7,5.6,1.9,8.3c0.9,0.9,0.5,3.1,1.4,4
		c-0.5,0.2-0.5,0.6-1.1,0.8c-1.1-0.3-1.1-1.7-1.4-2.8c-0.6-0.8-1.7-0.8-3.1-0.5c-1.2,0.6-0.5,3.1-2.5,3.1c-0.5-2,0.5-4.2,1.1-6
		c0.6-2.2,0.9-4.3,1.2-6.6c0-0.3,0-0.3,0.2-0.5C76.2,153.6,77.1,154.4,77.8,154.4z M75.3,161.9c0.6,0.5,1.2,0.8,2.5,0.6
		c0.5-1.2-0.8-2-0.6-3.7c-0.3,0-0.5-0.2-0.8-0.2C76.1,159.8,75.6,160.7,75.3,161.9z"/>
	<path stroke="#FFFFFF" stroke-width="0.3071" d="M99.4,154.2c1.2,1.1,0.6,3.9,0.6,5.7c0.5,0.5,1.7,0.2,2.5,0.2
		c0.5-2-0.5-4.3,1.1-5.7c1.4,0,0.3,1.4,0.5,2c0,1.1,0.5,1.7,0.2,3.1c-0.2,0.5-0.2,3.5,0,5.1c0.2,1.2,1.1,2.6-0.5,3.2
		c-2.2-0.9,0.5-5.4-1.5-6.5c-0.8,0-1.4,0.3-2,0.6c0,2.3,1.1,5.1-0.8,5.7c-1.1-0.6-0.6-2.3-0.6-3.7c0-1.1-0.5-3.1-0.2-5.1
		c0.2-1.1,0.5-2.5,0.2-4C99.1,154.6,99.2,154.5,99.4,154.2C99,154.2,99.2,154.2,99.4,154.2z"/>
	<path stroke="#FFFFFF" stroke-width="0.3071" d="M113.2,154.9c-0.2,1.2-2.5,0.2-3.1,1.1c-0.2,0.9-0.3,3.2,0.6,4.2
		c1.1,0,2.5-0.3,2.6,0.6c0.2,0.6-0.8,0.3-0.5,1.1c-0.8,0-1.5,0-2.5,0c-0.9,1.2-0.2,2.8,0,4.5c0.5,0.5,2.9-0.2,3.7,0.6
		c-0.2,1.2-1.7,0-1.9,1.1c-1.1,0-2,0-3.1,0c-0.9-1.1-0.6-3.7-0.6-6.6s-0.3-5.2,0.6-6.8C111.2,154.5,112.6,153.8,113.2,154.9z"/>
	<path stroke="#FFFFFF" stroke-width="0.3071" d="M120.6,161.6c-1.4,0.9-0.3,3.9-1.2,5.9c-2-0.6-0.8-3.4-0.6-5.2
		c0.2-2.8-0.9-6,0.5-8c1.5,0,3.4-0.2,4.5,0.5C125,157,125.4,162.6,120.6,161.6z M120.6,160.1c0.5,0,0.9,0,1.4,0
		c0.8-0.8,1.1-3.1,0.5-4c-0.3-0.3-1.4-0.2-2-0.2C120.5,157.2,120.5,158.6,120.6,160.1z"/>
	<path stroke="#FFFFFF" stroke-width="0.3071" d="M143.3,155.5c-0.9-0.3-1.9,0.3-3.1,0.5c0,1.4-0.2,2.9,0.2,4c0.5,0.8,2.5,0,2.8,0.8
		c0.3,1.9-2.9,0.3-3.2,1.5c0,1.7,0.2,2.5,0.2,3.9c1.2,1.1,2.8-0.5,3.9,0.5c0,2-3.7,1.5-5.1,1.1c-1.1-2.2,0-6.2,0-9.3
		c0-1.1-0.5-3.4,0.6-4C140.4,153.8,142.9,153.9,143.3,155.5z"/>
	<path stroke="#FFFFFF" stroke-width="0.3071" d="M153.4,155c0.8,2.3,1.5,6-0.5,7.1c0.2,0.6,0.8,1.5,0.2,2.2
		c0.8,0.6,1.4,2.3,0.8,3.7c-1.5,0.2-2-1.4-1.5-2.6c-0.8-0.9-0.3-3.1-1.4-3.7c-1.7,0.8-0.2,4.8-1.4,6c-1.2,0.3-0.9-1.5-1.1-2.6
		c-0.2-3.4,0-7.3,0.5-10C150,154.2,152.1,154.7,153.4,155z M150.6,160.7c0.5-0.3,0.9-0.6,1.5-0.2c0.9-1.1,0.8-3.4,0-4.5
		C149.5,154.9,149.8,159.3,150.6,160.7z"/>
	<path fill="#FFFFFF" d="M64,109.8c0,0.2,0,0.5,0,0.6"/>
	<path stroke="#FFFFFF" stroke-width="0.3071" d="M171.3,143.7c0.2-0.5-0.9,0.2-0.6-0.6c3.5,0.2,5.4,2,8.8,2.5
		c1.4,0.2,2.3,0.3,3.4,1.1c-0.2,0.9-1.1-0.2-1.5,0.5c1.7,1.1,6-0.8,7.4,1.1c0.8,3.4-2.8,4.3-4.6,2.8c0.9-1.1,2-2,4-2
		c-0.3-1.1-1.5-0.3-1.9-0.2c-1.2,0.5-2.3,1.7-3.9,1.9c-2.2,0.2-4.5-2-7.3-2.5c-2-0.3-3.5-0.2-5.1-1.2c0.6-1.1,2,0.2,3.1,0
		c-2.2-1.2-5.7-0.2-7.9-1.5c0-0.3,0.3-0.5,0.8-0.5c-0.8-0.6-2,0.2-3.2,0c-1.1-0.2-1.7-0.9-2.6-1.1c0.2-0.5,0.9-0.5,1.5-0.5
		c-1.5-1.1-3.2,0.3-4.6,0s-2.3-1.7-3.9-2c-0.8,0,0-0.2-0.2-0.6c-3.1,1.1-5.4-1.2-8-2c-0.6-0.2-1.4,0-2-0.2c-2-0.6-3.9-2.3-6.5-2
		c-0.2-0.5-0.6-0.5-0.2-0.8c-2.3,0.6-4-0.6-5.7-1.4c0-0.3,0.6-0.2,0.6-0.6c-2,0.2-3.4-0.3-5.4-0.2c0-0.6-1.1-0.5-0.6-1.1
		c-3.5,0.2-5.4-1.5-7.9-2.5c-0.2-0.2-0.2-0.5-0.2-0.8c-3.7,0.8-6.3-1.1-8.6-2.5c-2.2,0.5-3.9-1.1-5.7-1.5c-0.5-0.5,0.3-0.3,0.2-1.1
		c-3.5,1.1-6.2-1.2-9.1-2c0.3-0.6,0.8-0.2,1.5-0.2c-0.5-0.8-2.5-0.2-3.7-0.5c0-0.6,0.8-0.3,1.1-0.8c-2.9,0.6-6.6,0-7.9-2.2
		c-2.8,0.6-5.2-0.5-7.3-1.2c-0.2-0.5,0.3-0.3,0.5-0.6c-0.2-0.5-1.2,0-1.9-0.2c-0.3-3.9,4.3-3.2,6.5-2c0,0.9-1.1-0.2-1.2,0.5
		c2.3,0.6,5.4,0.3,7.1,1.5c0.3,0.3,0.3,0.5,0,0.8c2.6,0.3,5.6,0.5,7.1,2c2.8,0,4.3,1.2,5.9,2.5c3.2-0.8,6.2,2.2,9.7,3.1
		c0.6,0.2,1.1,0,1.5,0c2.3,0.3,3.7,1.5,5.1,2.6c0.3,0,0-0.8-0.5-0.6c2.5-0.6,3.7,2,6,2.2c0.3-0.6-0.6-0.2-0.5-0.8
		c1.5,0,2.9,1.2,4.5,1.9c0,0.2-0.5,0.2-0.5,0.5c2.9,0.8,7.4,0,9.3,1.9c-0.6,0.2-0.8-0.3-1.4-0.2c0.5,1.1,2.2,0.5,3.2,0.6
		c1.4,0.2,2.6,0.8,3.2,1.4c-0.8,0.5-1.9,0.2-2.8,0c0.8,1.1,3.4,0.2,5.7,0.5c1.9,0.3,3.5,1.5,5.1,1.5c0,0.5-0.6,0.2-0.6,0.6
		c2.5-0.3,4.8,0.9,6.3,2c3.5-0.9,4.3,2.5,7.4,2.6c0.5,0,0-0.6-0.5-0.5c2-1.1,3.7,2.2,6.3,1.2C169.6,142.7,170,143.7,171.3,143.7z"/>
	<path stroke="#FFFFFF" stroke-width="0.3071" d="M107.8,128.2c-5.7,2.5-12,3.4-18.4,5.2c-2.2,0.6-4.3,1.7-6.6,2.2
		c-2.5,0.6-4.8,0.9-7.3,1.5c-2.3,0.6-4.6,1.4-6.8,2c-2.3,0.6-4.8,1.1-7.1,1.9c-7.1,2-14.2,3.5-20.5,6c-0.9,0.3-2.2,0.9-3.2,1.2
		c-1.1,0.3-2.2,1.1-3.1-0.2c0.2-1.4,1.7-1.2,2.6-1.5c0.8-0.3,1.2-0.9,2-1.2s1.7-0.3,2.6-0.6c2.2-0.6,4.8-1.7,7.3-2.2
		c0.6-0.2-0.3-0.3-0.5-0.5c1.2-0.8,3.5-0.6,4.8-1.4c-3.9,0.2-7.9,2-12.3,2.2c2.5-1.5,5.7-1.4,8.5-1.9c4.2-0.8,9.1-2.2,13.6-3.4
		c13-3.5,26.2-7.6,39.3-11.3C104.3,127.1,105.5,128.2,107.8,128.2z M80.8,133.4c-3.5,1.1-7.4,2-11.1,3.1c-2.9,0.8-6,1.2-8.6,2
		s-4,1.9-6.3,2.6c-1.4,0.5-2.8,0.6-3.9,1.5c-0.2,0-0.2,0.2,0,0.2c5.9-2.6,12.5-4.6,19.1-6.3c3.4-0.8,6.8-1.7,10-2.6
		c3.2-0.9,6.5-2.3,9.7-3.2c4.5-1.1,8.9-2,13-3.9C95.2,128.6,87.9,131.4,80.8,133.4z"/>
	<path stroke="#FFFFFF" stroke-width="0.3071" d="M93.3,157c-0.6-0.2-0.8-0.8-1.1-1.4c-0.5,0-0.8,0.3-1.4,0.2
		c-0.9,0.8-0.5,3.1,0,4.2c3.2-0.3,3.1,4,2.8,6.6c-2.2,1.7-6.2,0-4.5-2.6c0.9,0.3,1.1,1.7,2,2c2-0.3,2.2-3.2,1.1-4.5
		c-1.4-0.5-2.9-0.5-3.4-1.9c-0.2-0.5-0.5-2.2-0.5-2.5c0-1.5,1.1-2.5,2-3.2C92.3,154.2,94.4,154.4,93.3,157z"/>
	<path stroke="#FFFFFF" stroke-width="0.3071" d="M133.8,154.4c0.5,3.4-0.3,6.9,0,9.7c0.2,1.4,1.4,3.1-0.6,3.7
		c-1.7-1.4,0.9-5.9-1.5-6.5c-0.8,0-1.1,1.2-1.5,0.8c-0.2,1.9,0.5,4.6-0.6,5.7c-0.9-0.2-1.1-1.4-1.2-2.2c-0.2-2.3,0.2-5.6,0.5-8
		c0.2-1.2-0.3-2.5,0.5-3.2c2.2,1.1,0.6,3.2,1.2,5.9c0.5,0.6,1.5,0,2.2,0c0-0.3,0.3-3.2,0.2-3.1C133,156.7,132.2,154.2,133.8,154.4z"
		/>
</g>
</svg>
